<svg width="14" height="16" viewBox="0 0 14 16" fill="none" xmlns="http://www.w3.org/2000/svg">
<path d="M13 6.6909C13 11.2727 7 15.2 7 15.2C7 15.2 1 11.2727 1 6.6909C1 5.12853 1.63214 3.63015 2.75736 2.52539C3.88258 1.42064 5.4087 0.799988 7 0.799988C8.5913 0.799988 10.1174 1.42064 11.2426 2.52539C12.3679 3.63015 13 5.12853 13 6.6909Z" stroke="#708598" stroke-linecap="round" stroke-linejoin="round"/>
<path d="M6.99988 8.65481C8.10445 8.65481 8.99988 7.77566 8.99988 6.69118C8.99988 5.60669 8.10445 4.72754 6.99988 4.72754C5.89531 4.72754 4.99988 5.60669 4.99988 6.69118C4.99988 7.77566 5.89531 8.65481 6.99988 8.65481Z" stroke="#708598" stroke-linecap="round" stroke-linejoin="round"/>
</svg>
